<svg width="16" height="16" viewBox="0 0 16 16" fill="none" xmlns="http://www.w3.org/2000/svg">
<path d="M2.66683 3.99967H1.3335V13.333C1.3335 14.0663 1.9335 14.6663 2.66683 14.6663H12.0002V13.333H2.66683V3.99967ZM13.3335 1.33301H5.3335C4.60016 1.33301 4.00016 1.93301 4.00016 2.66634V10.6663C4.00016 11.3997 4.60016 11.9997 5.3335 11.9997H13.3335C14.0668 11.9997 14.6668 11.3997 14.6668 10.6663V2.66634C14.6668 1.93301 14.0668 1.33301 13.3335 1.33301ZM12.6668 7.33301H10.0002V9.99967H8.66683V7.33301H6.00016V5.99967H8.66683V3.33301H10.0002V5.99967H12.6668V7.33301Z" fill="#0077CC"/>
</svg>