<?xml version="1.0" encoding="UTF-8"?>
<svg width="202px" height="109px" viewBox="0 0 202 109" version="1.1" xmlns="http://www.w3.org/2000/svg" xmlns:xlink="http://www.w3.org/1999/xlink">
    <title>post copy 24</title>
    <g id="post-copy-24" stroke="none" stroke-width="1" fill="none" fill-rule="evenodd">
        <g id="true" transform="translate(29.000000, 33.000000)" fill="#F22F46" fill-rule="nonzero">
            <path d="M20.736,16.272 C20.736,18.72 18.72,20.736 16.272,20.736 C13.824,20.736 11.808,18.72 11.808,16.272 C11.808,13.824 13.824,11.808 16.272,11.808 C18.72,11.808 20.736,13.824 20.736,16.272 L20.736,16.272 Z M16.272,22.464 C13.824,22.464 11.808,24.48 11.808,26.928 C11.808,29.376 13.824,31.392 16.272,31.392 C18.72,31.392 20.736,29.376 20.736,26.928 C20.736,24.48 18.72,22.464 16.272,22.464 L16.272,22.464 Z M43.2,21.6 C43.2,33.552 33.552,43.2 21.6,43.2 C9.648,43.2 0,33.552 0,21.6 C0,9.648 9.648,0 21.6,0 C33.552,0 43.2,9.648 43.2,21.6 Z M37.44,21.6 C37.44,12.816 30.384,5.76 21.6,5.76 C12.816,5.76 5.76,12.816 5.76,21.6 C5.76,30.384 12.816,37.44 21.6,37.44 C30.384,37.44 37.44,30.384 37.44,21.6 Z M26.928,22.464 C24.48,22.464 22.464,24.48 22.464,26.928 C22.464,29.376 24.48,31.392 26.928,31.392 C29.376,31.392 31.392,29.376 31.392,26.928 C31.392,24.48 29.376,22.464 26.928,22.464 Z M26.928,11.808 C24.48,11.808 22.464,13.824 22.464,16.272 C22.464,18.72 24.48,20.736 26.928,20.736 C29.376,20.736 31.392,18.72 31.392,16.272 C31.392,13.824 29.376,11.808 26.928,11.808 Z M101.232,8.496 C101.376,8.496 101.52,8.64 101.664,8.784 L101.664,13.392 C101.664,13.68 101.376,13.824 101.232,13.824 L93.6,13.824 C93.312,13.824 93.168,13.536 93.168,13.392 L93.168,8.928 C93.168,8.64 93.456,8.496 93.6,8.496 L101.232,8.496 L101.232,8.496 Z M101.088,14.976 L86.4,14.976 C86.256,14.976 85.968,15.12 85.968,15.408 L84.096,22.608 L83.952,23.04 L81.648,15.408 C81.648,15.264 81.36,14.976 81.216,14.976 L75.456,14.976 C75.312,14.976 75.024,15.12 75.024,15.408 L72.864,22.608 L72.72,23.04 L72.576,22.608 L71.712,19.008 L70.848,15.408 C70.848,15.264 70.56,14.976 70.416,14.976 L58.896,14.976 L58.896,8.784 C58.896,8.64 58.608,8.352 58.32,8.496 L51.12,10.8 C50.832,10.8 50.688,10.944 50.688,11.232 L50.688,15.12 L48.816,15.12 C48.672,15.12 48.384,15.264 48.384,15.552 L48.384,21.024 C48.384,21.168 48.528,21.456 48.816,21.456 L50.688,21.456 L50.688,28.224 C50.688,32.976 53.28,35.136 58.032,35.136 C60.048,35.136 61.92,34.704 63.216,33.984 L63.216,28.224 C63.216,27.936 62.928,27.792 62.784,27.936 C62.064,28.224 61.344,28.368 60.768,28.368 C59.472,28.368 58.752,27.792 58.752,26.352 L58.752,21.456 L62.928,21.456 C63.072,21.456 63.36,21.312 63.36,21.024 L63.36,16.416 L68.832,34.56 C68.832,34.704 69.12,34.992 69.264,34.992 L75.312,34.992 C75.456,34.992 75.744,34.848 75.744,34.56 L78.336,26.496 L79.632,30.672 L80.784,34.56 C80.784,34.704 81.072,34.992 81.216,34.992 L87.264,34.992 C87.408,34.992 87.696,34.848 87.696,34.56 L93.168,16.416 L93.168,34.56 C93.168,34.704 93.312,34.992 93.6,34.992 L100.944,34.992 C101.088,34.992 101.376,34.848 101.376,34.56 L101.376,15.408 C101.376,15.264 101.232,14.976 101.088,14.976 L101.088,14.976 Z M110.736,8.496 L103.392,8.496 C103.248,8.496 102.96,8.64 102.96,8.928 L102.96,34.416 C102.96,34.56 103.104,34.848 103.392,34.848 L110.736,34.848 C110.88,34.848 111.168,34.704 111.168,34.416 L111.168,8.784 C111.168,8.64 111.024,8.496 110.736,8.496 Z M120.528,8.496 L112.896,8.496 C112.752,8.496 112.464,8.64 112.464,8.928 L112.464,13.392 C112.464,13.536 112.608,13.824 112.896,13.824 L120.528,13.824 C120.672,13.824 120.96,13.68 120.96,13.392 L120.96,8.784 C120.96,8.64 120.816,8.496 120.528,8.496 L120.528,8.496 Z M120.384,14.976 L113.04,14.976 C112.896,14.976 112.608,15.12 112.608,15.408 L112.608,34.272 C112.608,34.416 112.752,34.704 113.04,34.704 L120.384,34.704 C120.528,34.704 120.816,34.56 120.816,34.272 L120.816,15.408 C120.816,15.264 120.672,14.976 120.384,14.976 Z M143.568,24.768 C143.568,30.24 138.96,34.992 132.48,34.992 C126.144,34.992 121.536,30.24 121.536,24.768 C121.536,19.296 126.144,14.544 132.624,14.544 C138.96,14.544 143.568,19.296 143.568,24.768 L143.568,24.768 Z M135.792,24.912 C135.792,22.896 134.352,21.312 132.624,21.456 C130.752,21.456 129.456,23.04 129.456,24.912 C129.456,26.784 130.896,28.368 132.624,28.368 C134.496,28.368 135.792,26.784 135.792,24.912 Z" id="Shape"></path>
        </g>
    </g>
</svg>