<?xml version="1.0" encoding="UTF-8"?>
<svg width="202px" height="109px" viewBox="0 0 202 109" version="1.1" xmlns="http://www.w3.org/2000/svg" xmlns:xlink="http://www.w3.org/1999/xlink">
    <title>post copy 21</title>
    <g id="post-copy-21" stroke="none" stroke-width="1" fill="none" fill-rule="evenodd">
        <g id="netflix" transform="translate(42.000000, 39.000000)" fill="#E50914" fill-rule="nonzero">
            <path d="M91.0503,28.58337 C92.7108,28.70658 94.3632,28.84626 96.0156,28.99413 L96.0156,0 L91.0503,0 L91.0503,28.58337 Z M11.1861,17.82864 L4.717323,0 L0,0 L0,31.5 C1.652301,31.26996 3.304602,31.03992 4.965165,30.82626 L4.965165,13.69602 L10.71522,30.11976 C12.52449,29.91429 14.33376,29.7171 16.15122,29.52819 L16.15122,0 L11.1861,0 L11.1861,17.82864 Z M20.92644,29.0763 C25.5033,28.66545 30.09672,28.32039 34.71489,28.0575 L34.71489,23.19363 C31.7655,23.36616 28.82439,23.56335 25.89156,23.79339 L25.89156,16.43193 C27.81648,16.41546 30.35277,16.35795 32.59989,16.38261 L32.59989,11.51874 C30.80718,11.51055 27.92394,11.5434 25.89156,11.56806 L25.89156,4.913145 L34.71489,4.913145 L34.71489,0 L20.92644,0 L20.92644,29.0763 Z M37.89558,4.913145 L43.092,4.913145 L43.092,27.66312 C44.74431,27.59742 46.39662,27.5481 48.05721,27.50706 L48.05721,4.913145 L53.25372,4.913145 L53.25372,0 L37.89558,0 L37.89558,4.913145 Z M56.43441,27.36738 L61.39953,27.36738 L61.39953,16.13619 L68.1327,16.13619 L68.1327,11.27232 L61.39953,11.27232 L61.39953,4.913145 L70.2972,4.913145 L70.2972,0 L56.43441,0 L56.43441,27.36738 Z M117.8919,0 L112.4388,0 L108.8451,8.289909 L105.615,0 L100.2456,0 L106.02,14.80518 L99.7164,29.331 C101.4597,29.50353 103.1949,29.68425 104.9373,29.87325 L108.6057,21.4272 L112.2327,30.7359 C114.1245,30.97422 116.0082,31.22883 117.8919,31.5 L117.9,31.5 L111.4308,14.91201 L117.8919,0 Z M78.44301,0 L73.47789,0 L73.47789,27.61389 C77.98869,27.76995 82.48293,27.9918 86.96061,28.28754 L86.96061,23.42367 C84.12696,23.23476 81.29322,23.07861 78.44301,22.94721 L78.44301,0 Z" id="Shape"></path>
        </g>
    </g>
</svg>