<?xml version="1.0" encoding="UTF-8"?>
<svg width="202px" height="109px" viewBox="0 0 202 109" version="1.1" xmlns="http://www.w3.org/2000/svg" xmlns:xlink="http://www.w3.org/1999/xlink">
    <title>post copy 23</title>
    <g id="post-copy-23" stroke="none" stroke-width="1" fill="none" fill-rule="evenodd">
        <g id="Slack_RGB" transform="translate(25.000000, 35.000000)" fill-rule="nonzero">
            <g id="Group" transform="translate(48.370482, 0.608434)" fill="#000000">
                <path d="M0.152108434,29.6611446 L2.03825301,25.2804217 C4.07650602,26.801506 6.78403614,27.5924699 9.46114458,27.5924699 C11.4385542,27.5924699 12.6858434,26.8319277 12.6858434,25.6759036 C12.6554217,22.4512048 0.851807229,24.9762048 0.760542169,16.8840361 C0.730120482,12.7771084 4.38072289,9.61325301 9.55240964,9.61325301 C12.625,9.61325301 15.6975904,10.3737952 17.8879518,12.1078313 L16.123494,16.5798193 C14.1156627,15.3021084 11.6210843,14.3894578 9.24819277,14.3894578 C7.63584337,14.3894578 6.57108434,15.15 6.57108434,16.123494 C6.60150602,19.2873494 18.4963855,17.5533133 18.6180723,25.2804217 C18.6180723,29.4786145 15.0587349,32.4295181 9.94789157,32.4295181 C6.2060241,32.4295181 2.76837349,31.5472892 0.152108434,29.6611446" id="Path"></path>
                <path d="M72.5253012,23.698494 C71.5822289,25.3412651 69.8177711,26.4668675 67.7795181,26.4668675 C64.7677711,26.4668675 62.3340361,24.0331325 62.3340361,21.0213855 C62.3340361,18.0096386 64.7677711,15.5759036 67.7795181,15.5759036 C69.8177711,15.5759036 71.5822289,16.701506 72.5253012,18.3442771 L77.7274096,15.4542169 C75.7804217,11.9861446 72.0385542,9.61325301 67.7795181,9.61325301 C61.4822289,9.61325301 56.3713855,14.7240964 56.3713855,21.0213855 C56.3713855,27.3186747 61.4822289,32.4295181 67.7795181,32.4295181 C72.0689759,32.4295181 75.7804217,30.0870482 77.7274096,26.5885542 L72.5253012,23.698494 Z" id="Path"></path>
                <rect id="Rectangle" x="21.2343373" y="0.152108434" width="6.51024096" height="31.851506"></rect>
                <polygon id="Path" points="80.2828313 0.152108434 80.2828313 32.0036145 86.7930723 32.0036145 86.7930723 22.4512048 94.5201807 32.0036145 102.855723 32.0036145 93.0295181 20.6563253 102.125602 10.0695783 94.1551205 10.0695783 86.7930723 18.8614458 86.7930723 0.152108434"></polygon>
                <path d="M47.0927711,23.7593373 C46.1496988,25.3108434 44.2027108,26.4668675 42.0123494,26.4668675 C39.0006024,26.4668675 36.5668675,24.0331325 36.5668675,21.0213855 C36.5668675,18.0096386 39.0006024,15.5759036 42.0123494,15.5759036 C44.2027108,15.5759036 46.1496988,16.7927711 47.0927711,18.3746988 L47.0927711,23.7593373 Z M47.0927711,10.0695783 L47.0927711,12.6554217 C46.028012,10.8605422 43.3813253,9.61325301 40.6129518,9.61325301 C34.8936747,9.61325301 30.3912651,14.663253 30.3912651,20.9909639 C30.3912651,27.3186747 34.8936747,32.4295181 40.6129518,32.4295181 C43.3813253,32.4295181 46.028012,31.1822289 47.0927711,29.3873494 L47.0927711,31.9731928 L53.603012,31.9731928 L53.603012,10.0695783 L47.0927711,10.0695783 Z" id="Shape"></path>
            </g>
            <g id="Group">
                <g transform="translate(0.000000, 20.078313)" fill="#E01E5A" id="Path">
                    <path d="M8.2746988,4.25903614 C8.2746988,6.47981928 6.47981928,8.2746988 4.25903614,8.2746988 C2.03825301,8.2746988 0.243373494,6.47981928 0.243373494,4.25903614 C0.243373494,2.03825301 2.03825301,0.243373494 4.25903614,0.243373494 L8.2746988,0.243373494 L8.2746988,4.25903614 Z"></path>
                    <path d="M10.2825301,4.25903614 C10.2825301,2.03825301 12.0774096,0.243373494 14.2981928,0.243373494 C16.5189759,0.243373494 18.3138554,2.03825301 18.3138554,4.25903614 L18.3138554,14.2981928 C18.3138554,16.5189759 16.5189759,18.3138554 14.2981928,18.3138554 C12.0774096,18.3138554 10.2825301,16.5189759 10.2825301,14.2981928 L10.2825301,4.25903614 Z"></path>
                </g>
                <g fill="#36C5F0" id="Path">
                    <path d="M14.2981928,8.21385542 C12.0774096,8.21385542 10.2825301,6.4189759 10.2825301,4.19819277 C10.2825301,1.97740964 12.0774096,0.18253012 14.2981928,0.18253012 C16.5189759,0.18253012 18.3138554,1.97740964 18.3138554,4.19819277 L18.3138554,8.21385542 L14.2981928,8.21385542 Z"></path>
                    <path d="M14.2981928,10.2521084 C16.5189759,10.2521084 18.3138554,12.046988 18.3138554,14.2677711 C18.3138554,16.4885542 16.5189759,18.2834337 14.2981928,18.2834337 L4.22861446,18.2834337 C2.00783133,18.2834337 0.212951807,16.4885542 0.212951807,14.2677711 C0.212951807,12.046988 2.00783133,10.2521084 4.22861446,10.2521084 L14.2981928,10.2521084 Z"></path>
                </g>
                <g transform="translate(20.078313, 0.000000)" fill="#2EB67D" id="Path">
                    <path d="M10.3129518,14.2677711 C10.3129518,12.046988 12.1078313,10.2521084 14.3286145,10.2521084 C16.5493976,10.2521084 18.3442771,12.046988 18.3442771,14.2677711 C18.3442771,16.4885542 16.5493976,18.2834337 14.3286145,18.2834337 L10.3129518,18.2834337 L10.3129518,14.2677711 Z"></path>
                    <path d="M8.30512048,14.2677711 C8.30512048,16.4885542 6.51024096,18.2834337 4.28945783,18.2834337 C2.0686747,18.2834337 0.273795181,16.4885542 0.273795181,14.2677711 L0.273795181,4.19819277 C0.273795181,1.97740964 2.0686747,0.18253012 4.28945783,0.18253012 C6.51024096,0.18253012 8.30512048,1.97740964 8.30512048,4.19819277 L8.30512048,14.2677711 Z"></path>
                </g>
                <g transform="translate(20.078313, 20.078313)" fill="#ECB22E" id="Path">
                    <path d="M4.28945783,10.2825301 C6.51024096,10.2825301 8.30512048,12.0774096 8.30512048,14.2981928 C8.30512048,16.5189759 6.51024096,18.3138554 4.28945783,18.3138554 C2.0686747,18.3138554 0.273795181,16.5189759 0.273795181,14.2981928 L0.273795181,10.2825301 L4.28945783,10.2825301 Z"></path>
                    <path d="M4.28945783,8.2746988 C2.0686747,8.2746988 0.273795181,6.47981928 0.273795181,4.25903614 C0.273795181,2.03825301 2.0686747,0.243373494 4.28945783,0.243373494 L14.3590361,0.243373494 C16.5798193,0.243373494 18.3746988,2.03825301 18.3746988,4.25903614 C18.3746988,6.47981928 16.5798193,8.2746988 14.3590361,8.2746988 L4.28945783,8.2746988 Z"></path>
                </g>
            </g>
        </g>
    </g>
</svg>