<?xml version="1.0" encoding="UTF-8"?>
<svg width="90px" height="35px" viewBox="0 0 90 35" version="1.1" xmlns="http://www.w3.org/2000/svg" xmlns:xlink="http://www.w3.org/1999/xlink">
    <title>Mobile Copy</title>
    <g id="Mobile-Copy" stroke="none" stroke-width="1" fill="none" fill-rule="evenodd">
        <g id="shopify_logo_whitebg" transform="translate(0.000000, 5.000000)" fill-rule="nonzero">
            <g id="Group">
                <path d="M18.3654,4.6341 C18.3483,4.5144 18.2457,4.446 18.1602,4.446 C18.0747,4.446 16.3818,4.4118 16.3818,4.4118 C16.3818,4.4118 14.9625,3.0438 14.8257,2.8899 C14.6889,2.7531 14.4153,2.7873 14.3127,2.8215 C14.3127,2.8215 14.0391,2.907 13.5945,3.0438 C13.5261,2.8044 13.4064,2.5137 13.2525,2.2059 C12.7566,1.2483 12.0042,0.7353 11.115,0.7353 C11.115,0.7353 11.115,0.7353 11.115,0.7353 C11.0466,0.7353 10.9953,0.7353 10.9269,0.7524 C10.8927,0.7182 10.8756,0.684 10.8414,0.6669 C10.4481,0.2565 9.9522,0.0513 9.3537,0.0684 C8.208,0.1026 7.0623,0.9405 6.1218,2.4111 C5.472,3.4542 4.9761,4.7538 4.8222,5.7627 C3.5055,6.1731 2.5821,6.4638 2.5479,6.4638 C1.881,6.669 1.8639,6.6861 1.7784,7.3188 C1.7442,7.7976 0,21.2895 0,21.2895 L14.6376,23.8203 L20.9817,22.2471 C20.9646,22.2471 18.3825,4.7538 18.3654,4.6341 Z M12.8592,3.2832 C12.5172,3.3858 12.141,3.5055 11.7306,3.6423 C11.7306,3.0609 11.6451,2.2401 11.3886,1.5561 C12.2607,1.6929 12.6882,2.6847 12.8592,3.2832 Z M10.9611,3.8646 C10.1916,4.104 9.3537,4.3605 8.5158,4.617 C8.7552,3.7107 9.1998,2.8215 9.747,2.223 C9.9522,2.0007 10.2429,1.7613 10.5678,1.6245 C10.9098,2.2914 10.9782,3.2319 10.9611,3.8646 Z M9.3879,0.8379 C9.6615,0.8379 9.8838,0.8892 10.0719,1.026 C9.7641,1.1799 9.4563,1.4193 9.1827,1.7271 C8.4474,2.5137 7.8831,3.7278 7.6608,4.9077 C6.9597,5.13 6.2757,5.3352 5.6601,5.5233 C6.0705,3.6594 7.6266,0.8892 9.3879,0.8379 Z" id="Shape" fill="#95BF47"></path>
                <g transform="translate(3.762000, 2.736000)" id="Path">
                    <path d="M14.3982,1.71 C14.3127,1.71 12.6198,1.6758 12.6198,1.6758 C12.6198,1.6758 11.2005,0.3078 11.0637,0.1539 C11.0124,0.1026 10.944,0.0684 10.8756,0.0684 L10.8756,21.0843 L17.2197,19.5111 C17.2197,19.5111 14.6376,2.0178 14.6205,1.8981 C14.5863,1.7784 14.4837,1.71 14.3982,1.71 Z" fill="#5E8E3E"></path>
                    <path d="M7.353,4.9761 L6.6177,7.7292 C6.6177,7.7292 5.7969,7.353 4.8222,7.4214 C3.3858,7.5069 3.3858,8.4132 3.3858,8.6355 C3.4713,9.8667 6.7032,10.1403 6.8913,13.0302 C7.0281,15.3045 5.6943,16.8606 3.7449,16.9803 C1.4193,17.1 0.1368,15.732 0.1368,15.732 L0.6327,13.6287 C0.6327,13.6287 1.9323,14.6034 2.9583,14.535 C3.6252,14.5008 3.8817,13.9365 3.8475,13.5603 C3.7449,11.9529 1.1115,12.0555 0.9405,9.405 C0.8037,7.182 2.2572,4.9419 5.472,4.7367 C6.7203,4.6512 7.353,4.9761 7.353,4.9761 Z" fill="#FFFFFF"></path>
                </g>
            </g>
            <g id="Group" transform="translate(24.282000, 4.617000)" fill="#000000">
                <path d="M5.2839,8.9604 C4.5486,8.5671 4.1724,8.2251 4.1724,7.7634 C4.1724,7.182 4.7025,6.8058 5.5233,6.8058 C6.4809,6.8058 7.3359,7.1991 7.3359,7.1991 L8.0028,5.1471 C8.0028,5.1471 7.3872,4.6683 5.5746,4.6683 C3.0438,4.6683 1.2825,6.1218 1.2825,8.1567 C1.2825,9.3195 2.1033,10.1916 3.1977,10.8243 C4.0869,11.3202 4.3947,11.6793 4.3947,12.2094 C4.3947,12.7566 3.9501,13.2012 3.1293,13.2012 C1.9152,13.2012 0.7524,12.5685 0.7524,12.5685 L0.0342,14.6205 C0.0342,14.6205 1.0944,15.3387 2.8899,15.3387 C5.4891,15.3387 7.3701,14.0562 7.3701,11.7477 C7.353,10.4994 6.4125,9.6102 5.2839,8.9604 Z" id="s_4_"></path>
                <path d="M15.6465,4.6341 C14.364,4.6341 13.3551,5.2497 12.5856,6.1731 L12.5514,6.156 L13.6629,0.342 L10.773,0.342 L7.9515,15.1506 L10.8414,15.1506 L11.799,10.089 C12.1752,8.1738 13.167,6.9939 14.0904,6.9939 C14.7402,6.9939 14.9967,7.4385 14.9967,8.0712 C14.9967,8.4645 14.9625,8.9604 14.877,9.3537 L13.7826,15.1506 L16.6725,15.1506 L17.8011,9.1656 C17.9208,8.5329 18.0063,7.7805 18.0063,7.2675 C18.0234,5.6259 17.1684,4.6341 15.6465,4.6341 Z" id="h_4_"></path>
                <path d="M24.5727,4.6341 C21.0843,4.6341 18.7758,7.7805 18.7758,11.286 C18.7758,13.5261 20.1609,15.3387 22.7601,15.3387 C26.1801,15.3387 28.4886,12.2778 28.4886,8.6868 C28.5057,6.6177 27.2916,4.6341 24.5727,4.6341 Z M23.1534,13.1328 C22.1616,13.1328 21.7512,12.2949 21.7512,11.2347 C21.7512,9.576 22.6062,6.8742 24.1794,6.8742 C25.2054,6.8742 25.5474,7.7634 25.5474,8.6184 C25.5474,10.3968 24.6753,13.1328 23.1534,13.1328 Z" id="o_4_"></path>
                <path d="M35.91,4.6341 C33.9606,4.6341 32.8491,6.3612 32.8491,6.3612 L32.8149,6.3612 L32.9859,4.8051 L30.4209,4.8051 C30.3012,5.8482 30.0618,7.4556 29.8395,8.6526 L27.8217,19.2546 L30.7116,19.2546 L31.5153,14.9625 L31.5837,14.9625 C31.5837,14.9625 32.1822,15.3387 33.2766,15.3387 C36.6795,15.3387 38.9025,11.8503 38.9025,8.3277 C38.9025,6.3783 38.0304,4.6341 35.91,4.6341 Z M33.1398,13.167 C32.3874,13.167 31.9428,12.7395 31.9428,12.7395 L32.4216,10.0377 C32.7636,8.2251 33.7041,7.0281 34.713,7.0281 C35.6022,7.0281 35.8758,7.8489 35.8758,8.6184 C35.8758,10.4994 34.7643,13.167 33.1398,13.167 Z" id="p_4_"></path>
                <path d="M43.0407,0.4788 C42.1173,0.4788 41.382,1.2141 41.382,2.1546 C41.382,3.0096 41.9292,3.6081 42.75,3.6081 L42.7842,3.6081 C43.6905,3.6081 44.46,2.9925 44.4771,1.9323 C44.4771,1.0944 43.9128,0.4788 43.0407,0.4788 Z" id="dot_4_"></path>
                <polygon id="i_4_" points="38.988 15.1335 41.8779 15.1335 43.8444 4.8735 40.9374 4.8735"></polygon>
                <path d="M51.2145,4.8564 L49.1967,4.8564 L49.2993,4.3776 C49.4703,3.3858 50.0517,2.5137 51.0264,2.5137 C51.5394,2.5137 51.9498,2.6676 51.9498,2.6676 L52.5141,0.3933 C52.5141,0.3933 52.0182,0.1368 50.9409,0.1368 C49.9149,0.1368 48.8889,0.4275 48.1023,1.0944 C47.1105,1.9323 46.6488,3.1464 46.4265,4.3776 L46.341,4.8564 L44.9901,4.8564 L44.5626,7.0452 L45.9135,7.0452 L44.3745,15.1506 L47.2644,15.1506 L48.8034,7.0452 L50.8041,7.0452 L51.2145,4.8564 Z" id="f_4_"></path>
                <path d="M58.1913,4.8735 C58.1913,4.8735 56.3787,9.4392 55.575,11.9358 L55.5408,11.9358 C55.4895,11.1321 54.8226,4.8735 54.8226,4.8735 L51.7788,4.8735 L53.523,14.2956 C53.5572,14.5008 53.5401,14.6376 53.4546,14.7744 C53.1126,15.4242 52.5483,16.0569 51.8814,16.5186 C51.3342,16.9119 50.7186,17.1684 50.2398,17.3394 L51.0435,19.8018 C51.6249,19.6821 52.8561,19.1862 53.8821,18.2286 C55.1988,16.9974 56.43,15.0822 57.6783,12.483 L61.218,4.8735 L58.1913,4.8735 Z" id="y_4_"></path>
            </g>
        </g>
    </g>
</svg>