<?xml version="1.0" encoding="UTF-8"?>
<svg width="202px" height="109px" viewBox="0 0 202 109" version="1.1" xmlns="http://www.w3.org/2000/svg" xmlns:xlink="http://www.w3.org/1999/xlink">
    <title>post copy 25</title>
    <g id="post-copy-25" stroke="none" stroke-width="1" fill="none" fill-rule="evenodd">
        <g id="logoleft-microsoft" transform="translate(15.000000, 35.000000)" fill-rule="nonzero">
            <path d="M171.283056,16.5367601 L171.283056,13.5376082 L167.538259,13.5376082 L167.538259,8.8483266 L167.4057,8.8814664 L163.892881,9.95850989 L163.826602,9.9750798 L163.826602,13.5376082 L158.275685,13.5376082 L158.275685,11.5492203 C158.275685,10.6213059 158.474522,9.92537009 158.888771,9.46141289 C159.286448,8.99745569 159.866395,8.76547709 160.59547,8.76547709 C161.125706,8.76547709 161.672514,8.89803629 162.21932,9.13001489 L162.35188,9.19629449 L162.35188,6.0314436 L162.285601,6.01487369 C161.771934,5.8326048 161.075998,5.7331854 160.214363,5.7331854 C159.12075,5.7331854 158.126556,5.965164 157.264921,6.44569109 C156.403286,6.90964829 155.72392,7.5890142 155.243393,8.450649 C154.762865,9.3122838 154.530887,10.2899079 154.530887,11.3835213 L154.530887,13.5376082 L151.945984,13.5376082 L151.945984,16.55333 L154.547458,16.55333 L154.547458,29.2458736 L158.292254,29.2458736 L158.292254,16.55333 L163.843171,16.55333 L163.843171,24.6228715 C163.843171,27.9368515 165.417312,29.6269812 168.499313,29.6269812 C169.01298,29.6269812 169.543217,29.5607016 170.090023,29.4447124 C170.6534,29.3287231 171.017938,29.2127336 171.249917,29.0801744 L171.299627,29.0470348 L171.299627,26.0147429 L171.150497,26.1141624 C170.951658,26.2467216 170.68654,26.3627108 170.40485,26.4455604 C170.106594,26.52841 169.858045,26.5781196 169.659206,26.5781196 C168.930131,26.5781196 168.399894,26.3792808 168.068496,25.9981732 C167.737098,25.6170653 167.554829,24.9376996 167.554829,23.9766452 L167.554829,16.5699 L171.283056,16.5367601 L171.283056,16.5367601 Z M143.594753,26.5615496 C142.236022,26.5615496 141.175548,26.1141624 140.413332,25.2193877 C139.651117,24.3246132 139.270009,23.0653008 139.270009,21.4414505 C139.270009,19.7844605 139.651117,18.4754384 140.413332,17.564094 C141.175548,16.6693193 142.236022,16.2053621 143.561614,16.2053621 C144.854065,16.2053621 145.897969,16.6361796 146.627045,17.4978144 C147.37269,18.3594492 147.753798,19.6519013 147.753798,21.3420312 C147.753798,23.0487308 147.40583,24.3577529 146.693324,25.2359576 C146.01396,26.1141624 144.970055,26.5615496 143.594753,26.5615496 M143.760452,13.1565006 C141.175548,13.1565006 139.12088,13.918716 137.64616,15.4100069 C136.188008,16.901298 135.442362,18.9725356 135.442362,21.5740097 C135.442362,24.0263549 136.171438,26.0147429 137.59645,27.4563244 C139.02146,28.8979056 140.976709,29.6269812 143.379344,29.6269812 C145.881398,29.6269812 147.902927,28.8647657 149.377649,27.3403349 C150.8358,25.832474 151.581444,23.7778064 151.581444,21.2426117 C151.581444,18.7405568 150.88551,16.7521688 149.510208,15.3271576 C148.134905,13.8855762 146.212798,13.1565006 143.760452,13.1565006 M129.410918,13.1565006 C127.65451,13.1565006 126.196358,13.6038878 125.086175,14.4986624 C123.959422,15.3934372 123.396046,16.5699 123.396046,17.9783416 C123.396046,18.7074172 123.512034,19.3702132 123.760583,19.9335896 C124.009132,20.4969664 124.373669,20.9774933 124.870766,21.3917408 C125.367863,21.8059884 126.130079,22.220236 127.140842,22.6676232 C127.985908,23.0155912 128.632134,23.3138492 129.029812,23.545828 C129.427489,23.7778064 129.709177,24.0097852 129.858306,24.2251937 C130.007435,24.4406024 130.090285,24.7388608 130.090285,25.1199684 C130.090285,26.180442 129.29493,26.6941088 127.671079,26.6941088 C127.074563,26.6941088 126.378628,26.5615496 125.632981,26.3130012 C124.887336,26.0644528 124.17483,25.7164848 123.545174,25.2525276 L123.396046,25.1365384 L123.396046,28.7322065 L123.445754,28.7653464 C123.975991,29.0138948 124.638787,29.2127336 125.434142,29.3784328 C126.212928,29.5441316 126.925434,29.6269812 127.55509,29.6269812 C129.460628,29.6269812 131.001629,29.179594 132.128382,28.2848192 C133.255135,27.3900448 133.835082,26.180442 133.835082,24.7222908 C133.835082,23.6618172 133.520254,22.7504728 132.923737,22.0213972 C132.327221,21.2923216 131.266747,20.6295256 129.808596,20.0330092 C128.648704,19.569052 127.903058,19.1713744 127.58823,18.873116 C127.289972,18.5914277 127.140842,18.1771804 127.140842,17.6635133 C127.140842,17.1995561 127.323112,16.8350184 127.70422,16.5367601 C128.085326,16.238502 128.632134,16.0893728 129.29493,16.0893728 C129.924586,16.0893728 130.554242,16.1887924 131.183898,16.3876312 C131.813555,16.58647 132.376931,16.8350184 132.840888,17.1498464 L132.990017,17.249266 L132.990017,13.8358664 L132.923737,13.8027266 C132.49292,13.6204578 131.929543,13.4547588 131.250178,13.3387694 C130.570812,13.2227802 129.957726,13.1565006 129.410918,13.1565006 M113.652944,26.5615496 C112.294212,26.5615496 111.233739,26.1141624 110.471523,25.2193877 C109.709308,24.3246132 109.3282,23.0653008 109.3282,21.4414505 C109.3282,19.7844605 109.709308,18.4754384 110.471523,17.564094 C111.217169,16.6693193 112.277642,16.2053621 113.619804,16.2053621 C114.912256,16.2053621 115.95616,16.6361796 116.685236,17.4978144 C117.430881,18.3594492 117.811989,19.6519013 117.811989,21.3420312 C117.811989,23.0487308 117.464021,24.3577529 116.751515,25.2359576 C116.05558,26.1141624 115.011676,26.5615496 113.652944,26.5615496 M113.818643,13.1565006 C111.233739,13.1565006 109.179071,13.918716 107.70435,15.4100069 C106.246199,16.901298 105.500553,18.9725356 105.500553,21.5740097 C105.500553,24.0263549 106.229629,26.0147429 107.65464,27.4563244 C109.079652,28.8979056 111.0349,29.6269812 113.437535,29.6269812 C115.93959,29.6269812 117.961118,28.8647657 119.435839,27.3403349 C120.89399,25.832474 121.639636,23.7778064 121.639636,21.2426117 C121.639636,18.7405568 120.9437,16.7521688 119.568398,15.3271576 C118.193097,13.8855762 116.254418,13.1565006 113.818643,13.1565006 M99.8170776,16.255072 L99.8170776,13.5376082 L96.12199,13.5376082 L96.12199,29.2458736 L99.8170776,29.2458736 L99.8170776,21.209472 C99.8170776,19.8507401 100.131906,18.7239869 100.744992,17.878922 C101.341508,17.0338572 102.153434,16.6196096 103.131058,16.6196096 C103.462456,16.6196096 103.843563,16.6693193 104.241241,16.7853088 C104.638918,16.901298 104.937177,17.0172872 105.102876,17.1332765 L105.252005,17.249266 L105.252005,13.5210384 L105.185725,13.4878986 C104.837757,13.3387694 104.35723,13.2724898 103.744144,13.2724898 C102.81623,13.2724898 101.987734,13.570748 101.275229,14.1506946 C100.645572,14.6643616 100.198185,15.3768672 99.8502175,16.255072 C99.8502175,16.255072 99.8170776,16.255072 99.8170776,16.255072 Z M89.5105997,13.1565006 C87.82047,13.1565006 86.3126092,13.5210384 85.0201568,14.233544 C83.7277048,14.9460497 82.7335108,15.9733836 82.0541448,17.2824056 C81.3747788,18.574858 81.0433808,20.0992888 81.0433808,21.7894184 C81.0433808,23.2807096 81.3747788,24.6394412 82.0375748,25.832474 C82.7003708,27.0420768 83.6282852,27.9699912 84.8047481,28.6327872 C85.9812112,29.2790132 87.3399428,29.6104112 88.8478037,29.6104112 C90.6042132,29.6104112 92.0955041,29.2624435 93.3051068,28.5665076 L93.3548165,28.5333677 L93.3548165,25.1531081 L93.2056876,25.2690976 C92.6588808,25.6667752 92.0457944,25.9816032 91.3995684,26.2135817 C90.7533424,26.4455604 90.156826,26.5615496 89.6265892,26.5615496 C88.1850077,26.5615496 87.0085448,26.1141624 86.16348,25.2193877 C85.3184152,24.3246132 84.8875976,23.0653008 84.8875976,21.4911604 C84.8875976,19.90045 85.3349849,18.6079976 86.2131896,17.6635133 C87.0913944,16.7190292 88.2512873,16.238502 89.6762988,16.238502 C90.8859016,16.238502 92.0789344,16.6527496 93.1891176,17.4646745 L93.3382468,17.580664 L93.3382468,14.0181354 L93.2885369,13.9849956 C92.8742896,13.753017 92.2943429,13.5541782 91.5818372,13.405049 C90.8693316,13.2227802 90.1733957,13.1565006 89.5105997,13.1565006 M78.4916164,13.5376082 L74.7965285,13.5376082 L74.7965285,29.2458736 L78.4916164,29.2458736 L78.4916164,13.5376082 Z M76.6854972,6.84336869 C76.0724108,6.84336869 75.542174,7.04220749 75.1113568,7.456455 C74.6805392,7.87070249 74.4485608,8.3843694 74.4485608,8.99745569 C74.4485608,9.59397209 74.6639693,10.107639 75.0947868,10.5053166 C75.5256041,10.9029942 76.0558409,11.101833 76.6689272,11.101833 C77.2820136,11.101833 77.8288204,10.9029942 78.2596376,10.5053166 C78.6904552,10.107639 78.9224336,9.59397209 78.9224336,8.99745569 C78.9224336,8.40093929 78.7070249,7.8872724 78.2762076,7.47302489 C77.86196,7.0587774 77.3317232,6.84336869 76.6854972,6.84336869 M67.4726328,12.3777152 L67.4726328,29.2458736 L71.25057,29.2458736 L71.25057,7.3238958 L66.0310516,7.3238958 L59.4030916,23.5955376 L52.9739704,7.3238958 L47.5390432,7.3238958 L47.5390432,29.2293036 L51.0850016,29.2293036 L51.0850016,12.3777152 L51.2009909,12.3777152 L57.99465,29.2458736 L60.662404,29.2458736 L67.3400736,12.3777152 L67.4726328,12.3777152 L67.4726328,12.3777152 Z" id="path5056" fill="#716E6F"></path>
            <polygon id="path5058" fill="#F05423" points="17.3818252 17.3818252 0 17.3818252 0 0 17.3818252 0"></polygon>
            <polygon id="path5060" fill="#84C441" points="36.5697692 17.3818252 19.1879441 17.3818252 19.1879441 0 36.5697692 0"></polygon>
            <polygon id="path5062" fill="#2DABE2" points="17.3818252 36.5697692 0 36.5697692 0 19.1879441 17.3818252 19.1879441"></polygon>
            <polygon id="path5064" fill="#F9BC15" points="36.5697692 36.5697692 19.1879441 36.5697692 19.1879441 19.1879441 36.5697692 19.1879441"></polygon>
        </g>
    </g>
</svg>