<svg width="93" height="90" viewBox="0 0 93 90" fill="none" xmlns="http://www.w3.org/2000/svg">
<g clip-path="url(#clip0)">
<path d="M46.0524 15.8022C54.1793 15.8022 61.4032 19.1132 66.6707 24.3806C72.0886 29.6481 75.249 37.0225 75.249 45.1494C75.249 53.1237 72.0886 60.5001 66.6707 65.7655C61.4011 71.035 54.1772 74.3439 46.0524 74.3439C37.9255 74.3439 30.7016 71.0329 25.2837 65.7655C20.0142 60.4981 16.7053 53.1237 16.7053 45.1494C16.7053 37.0204 20.0163 29.6481 25.2837 24.3785C30.7016 19.1132 37.9255 15.8022 46.0524 15.8022ZM46.0524 16.2537C38.4313 16.2624 31.1248 19.2933 25.7352 24.6816C20.4657 29.9491 17.1568 37.173 17.1568 45.1494C17.1568 53.1237 20.4678 60.3476 25.7352 65.4666C30.8521 70.734 38.0739 73.8945 46.0524 73.8945C54.0288 73.8945 61.2527 70.7319 66.3697 65.4666C71.6392 60.3497 74.7975 53.1258 74.7975 45.1494C74.7975 37.173 71.6371 29.9491 66.3697 24.6816C60.9804 19.2929 53.6736 16.262 46.0524 16.2537Z" fill="#BCBCB6"/>
<path d="M46.0524 0.301025C56.2863 0.301025 65.7676 3.76039 73.2925 9.4814L78.259 4.51497L86.9879 13.2439L82.0214 18.3608C87.5899 25.8857 90.7503 35.0661 90.7503 44.9989C90.7503 69.6806 70.7341 89.8473 46.0524 89.8473C21.3707 89.8473 1.35449 69.6806 1.35449 44.9989C1.35449 20.3152 21.3707 0.301025 46.0524 0.301025ZM46.0524 10.8359C27.2401 10.8359 11.8894 26.1867 11.8894 44.9989C11.8894 63.9617 27.2401 79.162 46.0524 79.162C64.8646 79.162 80.2154 63.9617 80.2154 44.9989C80.2154 26.1867 64.8646 10.8359 46.0524 10.8359Z" fill="url(#paint0_radial)"/>
<path d="M46.0524 10.6853C55.5338 10.6853 64.1122 14.4478 70.4331 20.7687C73.6388 23.9666 76.1802 27.7672 77.9107 31.9515C79.6413 36.1359 80.5269 40.6213 80.5165 45.1493C80.5165 54.6286 76.6035 63.2091 70.4331 69.53C64.1122 75.6984 55.5338 79.6113 46.0524 79.6113C36.9131 79.6023 28.1485 75.9782 21.6717 69.53C15.5013 63.2091 11.5884 54.6286 11.5884 45.1493C11.5884 35.5175 15.5013 26.937 21.6717 20.7687C27.8422 14.4478 36.571 10.6853 46.0524 10.6853ZM46.0524 11.1368C36.7215 11.1368 28.1432 14.8992 21.9727 21.0697C15.8023 27.2401 12.0399 35.668 12.0399 45.1493C12.0399 54.4802 15.8023 63.0565 21.9727 69.229C28.1411 75.2489 36.7215 79.1619 46.0524 79.1619C55.3833 79.1619 63.9617 75.2489 70.1342 69.229C73.29 66.0643 75.7915 62.3088 77.4958 58.1772C79.2001 54.0456 80.0738 49.6187 80.0671 45.1493C80.0671 35.668 76.3025 27.2401 70.1342 21.0676C63.7414 14.6949 55.079 11.1227 46.0524 11.1368Z" fill="url(#paint1_linear)"/>
<path d="M46.0524 0C56.2862 0 65.9181 3.46145 73.443 9.33088L73.2925 9.48137C65.4606 3.52481 55.892 0.300016 46.0524 0.300996C21.3707 0.300996 1.35446 20.3151 1.35446 44.9989C1.35446 69.6806 21.3707 89.8473 46.0524 89.8473C70.734 89.8473 90.7503 69.6806 90.7503 44.9989C90.7503 35.066 87.5898 25.8836 82.0214 18.3608L82.1719 18.2103C87.7403 25.7372 91.0513 34.9155 91.0513 44.9989C91.0513 57.4902 85.9343 68.7776 77.8074 76.9045C69.6785 85.0335 58.5437 89.9999 46.0524 89.9999C40.1582 90.0126 34.3194 88.8625 28.8704 86.6153C23.4213 84.3682 18.4691 81.0683 14.2973 76.9045C6.1704 68.6271 1.05347 57.4902 1.05347 44.9989C1.05347 32.6581 6.1704 21.3707 14.2973 13.2438C22.4242 5.11693 33.561 0 46.0524 0Z" fill="url(#paint2_radial)"/>
<path d="M46.0524 10.9863C64.8647 10.9863 80.2155 26.1866 80.2155 45.1515C80.2155 63.9637 64.8647 79.3145 46.0524 79.3145C27.2402 79.3145 11.8894 63.9616 11.8894 45.1494C11.8894 26.1866 27.2402 10.9863 46.0524 10.9863ZM46.0524 15.8023C29.9492 15.8023 16.8558 28.8956 16.8558 45.1494C16.8558 61.2506 29.9492 74.346 46.0524 74.346C62.1557 74.346 75.2491 61.2506 75.2491 45.1494C75.2491 28.8956 62.1557 15.8023 46.0524 15.8023Z" fill="url(#paint3_radial)"/>
<path opacity="0.67" d="M5.21315 55.8452C5.21315 55.8891 5.22361 55.9267 5.2466 55.9643C5.26541 55.9998 5.29676 56.0145 5.34275 56.0145C5.37619 56.0145 5.40546 56.0061 5.44099 55.9894C5.47895 55.969 5.51409 55.9437 5.5455 55.9141V55.5818C5.42009 55.6027 5.33439 55.632 5.28631 55.6758C5.26289 55.6973 5.24426 55.7235 5.23165 55.7527C5.21905 55.7819 5.21274 55.8134 5.21315 55.8452Z" fill="url(#paint4_linear)"/>
<path opacity="0.67" d="M11.5842 54.8942H11.7953V55.0718H11.5842V54.8942Z" fill="url(#paint5_linear)"/>
<path opacity="0.67" d="M11.5842 55.1073H11.7953V55.2892H11.5842V55.1073Z" fill="url(#paint6_linear)"/>
<path opacity="0.67" d="M7.33059 55.8452C7.33059 55.8891 7.34313 55.9267 7.36403 55.9643C7.38284 55.9998 7.4142 56.0145 7.46018 56.0145C7.49362 56.0145 7.52498 56.0061 7.55842 55.9894C7.59187 55.9727 7.62531 55.9476 7.66293 55.9141V55.5818C7.53752 55.6027 7.45182 55.632 7.40374 55.6758C7.38032 55.6973 7.36169 55.7235 7.34908 55.7527C7.33648 55.7819 7.33017 55.8134 7.33059 55.8452Z" fill="url(#paint7_linear)"/>
<path opacity="0.67" d="M12.4998 55.2056H13.0767V55.4794H12.4998V55.2056Z" fill="url(#paint8_linear)"/>
<path opacity="0.67" d="M18.3294 54.2587H2.32642C2.72147 56.1378 3.26912 57.9605 3.89201 59.7456H20.8021C19.7909 58.0068 18.9622 56.168 18.3294 54.2587ZM11.5068 54.6077L11.6301 54.6851L11.5862 54.7352V54.8627H11.7869L11.8308 54.7917L11.9144 54.8899L11.8705 54.9401V55.0739H11.8935L11.9541 54.9965L12.0419 55.1094H11.8663L11.8705 55.3498L11.7932 55.3958V55.3247H11.5841V55.5316H11.743L11.7973 55.4459L11.8809 55.5672H11.5841V55.7574H11.8433L11.9039 55.6591L11.998 55.7887H11.5841C11.5841 55.8682 11.5862 55.9539 11.5946 56.0437L11.5068 56.0855C11.511 55.9769 11.5152 55.8786 11.5152 55.7887H11.2936C11.2643 55.7874 11.2352 55.7947 11.21 55.8096L11.1598 55.7532H11.5152V55.563H11.3542C11.3229 55.563 11.304 55.5693 11.2873 55.5839L11.2434 55.5295H11.5152V55.3226H11.3542C11.3229 55.3226 11.304 55.3289 11.2873 55.3456L11.2434 55.2871H11.5152V55.1052H11.2769C11.2455 55.1052 11.2267 55.1115 11.2121 55.1261L11.1682 55.0697H11.5172V54.8941H11.3647C11.3333 54.8941 11.3124 54.9025 11.2978 54.9171L11.2539 54.8607H11.5131C11.5145 54.7763 11.5124 54.6919 11.5068 54.6077ZM4.92251 56.0563H4.49191V56.0124H4.61942C4.64032 56.0124 4.65286 56.0082 4.66122 55.9978C4.66959 55.9873 4.67168 55.9748 4.67168 55.956V54.9484C4.6726 54.9338 4.66895 54.9192 4.66122 54.9066C4.65578 54.9011 4.64925 54.8968 4.64206 54.8939C4.63487 54.8911 4.62716 54.8897 4.61942 54.8899H4.49401V54.8481H4.55671C4.62201 54.8484 4.68571 54.8279 4.73856 54.7896H4.74902V55.9539C4.74902 55.9727 4.7532 55.9873 4.76156 55.9957C4.77201 56.004 4.78246 56.0103 4.79918 56.0103H4.92878V56.0542H4.92251V56.0563ZM5.70844 56.0187C5.68963 56.0458 5.66454 56.0605 5.63737 56.0605C5.61522 56.0616 5.59349 56.0541 5.57675 56.0396C5.55991 56.019 5.54842 55.9946 5.54331 55.9685C5.51166 55.9968 5.47736 56.022 5.44089 56.0437C5.40515 56.0613 5.36571 56.0699 5.32592 56.0688C5.29762 56.0703 5.26933 56.0657 5.24299 56.0552C5.21666 56.0448 5.19289 56.0287 5.17334 56.0082C5.15562 55.9908 5.14166 55.97 5.13232 55.9469C5.12297 55.9239 5.11843 55.8993 5.11899 55.8744C5.11899 55.7887 5.14825 55.7197 5.20469 55.6633C5.26113 55.6111 5.374 55.5713 5.54331 55.5463V55.4606C5.5446 55.4201 5.53599 55.3799 5.51823 55.3435C5.49942 55.3101 5.46388 55.2975 5.40326 55.2975C5.34265 55.2975 5.29666 55.3101 5.27367 55.3393C5.24859 55.3665 5.23604 55.3895 5.24649 55.4188C5.25271 55.4371 5.25271 55.4569 5.24649 55.4752C5.24283 55.4838 5.23672 55.4912 5.22892 55.4964C5.22112 55.5016 5.21197 55.5044 5.2026 55.5045C5.19579 55.5046 5.18903 55.5032 5.18286 55.5003C5.17669 55.4974 5.17128 55.4931 5.16707 55.4877C5.15659 55.4731 5.15076 55.4556 5.15034 55.4376C5.15034 55.3937 5.17543 55.354 5.22141 55.3142C5.27208 55.2767 5.334 55.2576 5.39699 55.2599C5.47015 55.2599 5.52659 55.2766 5.56212 55.3101C5.60184 55.3477 5.61647 55.3958 5.61647 55.4606V55.9267C5.61647 55.9664 5.61856 55.9873 5.62483 55.9936C5.6311 55.9998 5.63946 56.004 5.65618 56.004C5.675 56.004 5.68963 55.9936 5.6959 55.9727C5.70217 55.9518 5.70635 55.9225 5.70635 55.8849H5.73352C5.73561 55.9476 5.72725 55.9936 5.70844 56.0187ZM6.4254 56.0563H6.19338V56.0124H6.22264C6.24145 56.0124 6.254 56.0082 6.26236 55.9978C6.27072 55.9873 6.27072 55.9769 6.27072 55.958V55.4836C6.27343 55.4387 6.26405 55.3939 6.24354 55.354C6.23549 55.3395 6.22362 55.3276 6.20924 55.3195C6.19486 55.3114 6.17852 55.3074 6.16202 55.308C6.12379 55.3101 6.08753 55.3257 6.0596 55.3519C6.01967 55.3853 5.98696 55.4266 5.96345 55.4731V55.9601C5.96345 55.9789 5.96763 55.9936 5.97808 56.0019C5.98644 56.0103 5.99899 56.0166 6.01362 56.0166H6.04079V56.0605H5.80877V56.0166H5.83595C5.85685 56.0166 5.86939 56.0124 5.87775 56.0019C5.88611 55.9915 5.8882 55.9789 5.8882 55.9601V55.3519C5.8882 55.3393 5.88611 55.3247 5.88193 55.3184C5.87775 55.3122 5.86939 55.308 5.85894 55.308H5.80877V55.2662H5.84849C5.86939 55.2662 5.8882 55.2641 5.90283 55.2599C5.91746 55.2557 5.93628 55.2453 5.95091 55.2285H5.96136V55.3916C5.98927 55.3525 6.02231 55.3173 6.0596 55.2871C6.08941 55.2637 6.12626 55.2512 6.16411 55.2515C6.22682 55.2515 6.27281 55.2724 6.30207 55.3122C6.33489 55.3707 6.35013 55.4375 6.34597 55.5045V55.956C6.34597 55.9748 6.35015 55.9894 6.3606 55.9978C6.37105 56.0061 6.38359 56.0124 6.39822 56.0124H6.4254V56.0563ZM7.01276 56.0019C6.97931 56.0458 6.9396 56.0646 6.88525 56.0646C6.8309 56.0646 6.7891 56.0437 6.76193 56.0019C6.73475 55.9601 6.71803 55.8932 6.71803 55.8034V55.3101H6.55917V55.2683H6.60307C6.62404 55.2688 6.64484 55.2644 6.66375 55.2553C6.68265 55.2462 6.69911 55.2327 6.71176 55.216C6.74102 55.1805 6.75566 55.1261 6.76402 55.0509L6.7682 54.9965H6.80164V55.2703H7.02112V55.3122H6.80164V55.8347C6.80164 55.9016 6.81209 55.9476 6.8309 55.9685C6.84972 55.9936 6.8748 56.004 6.91451 56.004C6.93162 56.0045 6.94858 56.0007 6.96388 55.993C6.97919 55.9854 6.99238 55.9741 7.0023 55.9601C7.02656 55.9208 7.04157 55.8765 7.0462 55.8305L7.07546 55.8452C7.0673 55.9017 7.04581 55.9554 7.01276 56.0019ZM7.82586 56.0187C7.80705 56.0458 7.78406 56.0605 7.7548 56.0605C7.72971 56.0605 7.7109 56.0542 7.69627 56.0396C7.67955 56.0249 7.66909 55.9998 7.66073 55.9685C7.62908 55.9968 7.59478 56.022 7.55831 56.0437C7.52335 56.0613 7.48456 56.0699 7.44544 56.0688C7.41884 56.0702 7.39224 56.0663 7.3672 56.0572C7.34217 56.0481 7.31922 56.0341 7.29972 56.0159C7.28021 55.9978 7.26456 55.9759 7.25369 55.9516C7.24281 55.9273 7.23694 55.9011 7.23641 55.8744C7.23585 55.8353 7.24315 55.7965 7.25787 55.7602C7.27259 55.7239 7.29444 55.691 7.32211 55.6633C7.37855 55.6111 7.49142 55.5713 7.66073 55.5463V55.4606C7.66203 55.4201 7.65342 55.3799 7.63565 55.3435C7.61893 55.3101 7.5813 55.2975 7.52278 55.2975C7.46007 55.2975 7.41408 55.3101 7.39109 55.3393C7.36601 55.3665 7.35556 55.3895 7.36392 55.4188C7.37019 55.4397 7.37019 55.4585 7.36392 55.4752C7.35765 55.4919 7.34092 55.5045 7.32002 55.5045C7.31321 55.5046 7.30645 55.5032 7.30028 55.5003C7.29411 55.4974 7.28871 55.4931 7.28449 55.4877C7.27475 55.4728 7.26966 55.4554 7.26986 55.4376C7.26986 55.3937 7.29285 55.354 7.34093 55.3142C7.39136 55.2763 7.45344 55.2571 7.51651 55.2599C7.58757 55.2599 7.6461 55.2766 7.68164 55.3101C7.71926 55.3477 7.73389 55.3958 7.73389 55.4606V55.9267C7.73389 55.9664 7.73598 55.9873 7.74225 55.9936C7.74852 55.9998 7.75688 56.004 7.7757 56.004C7.79451 56.004 7.80705 55.9936 7.81332 55.9727C7.81959 55.9518 7.82377 55.9225 7.82377 55.8849H7.85095C7.85565 55.931 7.84694 55.9774 7.82586 56.0187ZM8.51147 55.4125C8.5031 55.4292 8.48847 55.4355 8.46966 55.4355C8.44876 55.4355 8.43413 55.4292 8.42577 55.4125C8.41622 55.3961 8.41324 55.3767 8.4174 55.3581L8.41322 55.3205C8.41113 55.3142 8.40068 55.308 8.38187 55.308C8.35052 55.308 8.31707 55.331 8.27318 55.379C8.22405 55.438 8.18583 55.5052 8.1603 55.5776V55.9601C8.1603 55.9789 8.16448 55.9936 8.17284 56.0019C8.18121 56.0103 8.19375 56.0166 8.21047 56.0166H8.3317V56.0605H7.92619V56.0166H8.03907C8.05788 56.0166 8.07042 56.0124 8.07878 56.0019C8.08714 55.9915 8.08923 55.9789 8.08923 55.9601V55.3749C8.08945 55.3589 8.08587 55.3432 8.07878 55.3289C8.07042 55.3184 8.05788 55.3122 8.03907 55.3122H7.92619V55.2703H7.97009C8.03066 55.2707 8.09058 55.2579 8.14567 55.2327H8.16239V55.4877C8.19308 55.4242 8.23326 55.3657 8.28154 55.3142C8.2981 55.2963 8.31811 55.2818 8.34038 55.2718C8.36264 55.2617 8.38671 55.2563 8.41113 55.2557C8.44876 55.2557 8.47593 55.2662 8.49683 55.2871C8.51774 55.308 8.52819 55.3289 8.52819 55.3581C8.5261 55.3832 8.52192 55.402 8.51147 55.4125ZM10.0687 55.7887V56.0709C10.0687 56.1692 10.0269 56.2381 9.94747 56.2758C9.94538 56.2068 9.88685 56.1545 9.77607 56.1232V56.0939L9.93492 56.1106C9.97046 56.1127 9.983 56.0835 9.983 56.0228V55.7887H9.53987C9.50186 55.7876 9.46405 55.7947 9.42909 55.8096L9.38519 55.7553H9.98509L9.98091 55.5504L10.052 55.5922L10.1983 55.4313H9.74471L9.69664 55.4522L9.65274 55.3958H10.1983L10.2589 55.3247L10.3572 55.4647C10.307 55.4564 10.2129 55.5045 10.0708 55.6132L10.1251 55.6487L10.0708 55.6926V55.7532H10.4408L10.5181 55.655L10.6289 55.7887H10.0687ZM10.631 55.3665C10.5787 55.3665 10.5348 55.3958 10.5097 55.4522C10.4033 55.3982 10.3092 55.3228 10.2333 55.2308C10.1574 55.1387 10.1013 55.0319 10.0687 54.9171H10.0373C10.0373 55.1345 10.0394 55.2683 10.0415 55.3101L9.94747 55.3414C9.95165 55.2369 9.95374 55.1094 9.95374 54.9505C9.83277 55.2037 9.6283 55.4074 9.37474 55.5274L9.37056 55.4961C9.59186 55.3554 9.76759 55.1536 9.8764 54.915H9.53569C9.49768 54.9138 9.45987 54.921 9.4249 54.9359L9.38101 54.8795H9.95374L9.94747 54.6266L10.0896 54.7039L10.0373 54.752V54.8795H10.4429L10.5202 54.7812L10.6184 54.915H10.0959C10.1398 55.0264 10.2124 55.1242 10.3064 55.1983C10.4004 55.2725 10.5124 55.3204 10.631 55.3372V55.3665ZM12.0544 56.1273C11.9813 56.1566 11.9457 56.188 11.9541 56.234C11.8385 56.2381 11.7227 56.2381 11.6071 56.234C11.4927 56.2324 11.3798 56.2083 11.2748 56.1629C11.1879 56.1257 11.1101 56.0701 11.0469 55.9998C10.9824 56.1096 10.8938 56.2032 10.7877 56.2737L10.771 56.2528C10.871 56.1645 10.9515 56.0563 11.0072 55.935C10.9466 55.822 10.9022 55.701 10.8755 55.5755L10.8985 55.563C10.9325 55.666 10.9766 55.7655 11.0302 55.8598C11.0678 55.7365 11.0929 55.5755 11.1076 55.3811H10.9466L10.9027 55.4585L10.8275 55.3602L10.8923 55.3226C10.9587 55.1864 11.0215 55.0484 11.0804 54.9087H10.9006L10.8379 54.9296L10.794 54.8732H11.0887L11.1368 54.7959L11.2142 54.9108L11.1535 54.9464C11.0929 55.0739 11.0239 55.2076 10.955 55.3477H11.1034L11.1473 55.285L11.2309 55.3832L11.1828 55.4313C11.167 55.598 11.1341 55.7626 11.0846 55.9225C11.1364 55.9844 11.2044 56.0307 11.281 56.0563C11.3759 56.0902 11.4752 56.1099 11.5758 56.1148C11.6866 56.1253 11.8475 56.1148 12.0607 56.0981L12.0544 56.1273ZM13.4131 56.1127C13.3483 56.1273 13.3086 56.1629 13.2981 56.2277C13.2022 56.1908 13.1104 56.1439 13.0243 56.0876C12.942 56.0293 12.8712 55.9563 12.8153 55.8723C12.7468 55.7637 12.6993 55.6432 12.6752 55.517H12.4997V56.0814L12.7965 55.9183L12.8069 55.9392C12.675 56.0158 12.5593 56.1173 12.4662 56.2381L12.4014 56.119C12.4179 56.0933 12.4272 56.0637 12.4286 56.0333V55.0153C12.4286 54.9401 12.4265 54.8753 12.4223 54.8189L12.4997 54.8878H12.7798C12.7685 54.7999 12.7362 54.7161 12.6857 54.6433L12.6961 54.6203C12.7881 54.6725 12.8404 54.7185 12.8529 54.7603C12.8655 54.8021 12.8529 54.846 12.8153 54.8878H13.064L13.1079 54.8189L13.1957 54.9171L13.1455 54.9589V55.3602L13.1497 55.5442L13.0724 55.5797V55.517H12.7087C12.7415 55.6266 12.7916 55.7304 12.8571 55.8243C12.9877 55.752 13.1038 55.6563 13.1999 55.5421L13.2814 55.6821H13.2166C13.1058 55.7302 12.9971 55.7908 12.8801 55.8493C12.9489 55.9309 13.0374 55.9935 13.1372 56.0312C13.2262 56.0641 13.3203 56.0811 13.4152 56.0814L13.4131 56.1127Z" fill="url(#paint9_linear)"/>
<path opacity="0.67" d="M12.4998 54.9235H13.0767V55.1701H12.4998V54.9235Z" fill="url(#paint10_linear)"/>
<path opacity="0.86" d="M73.7983 54.2587H89.7992C89.3976 56.1198 88.8746 57.9527 88.2336 59.7456H71.3235C72.3268 58.0169 73.1629 56.1859 73.7983 54.2587Z" fill="url(#paint11_linear)"/>
<path d="M90.5998 33.7115C91.6533 37.3256 92.1048 41.0859 92.1048 44.9989C92.1048 49.0623 91.5028 52.9732 90.5998 56.7377H1.65552V56.5872H90.4493C91.5028 52.8248 91.9543 48.9118 91.9543 44.8484C91.9543 40.9355 91.5028 37.173 90.5998 33.7115Z" fill="black"/>
<path d="M1.50498 33.561H90.5998C91.5028 37.173 91.9522 40.9333 91.9522 44.8463C91.9522 48.9097 91.5007 52.8227 90.4472 56.5851H1.65548C0.568773 52.7672 0.0117392 48.818 0 44.8484C0 40.9354 0.601992 37.173 1.50498 33.561Z" fill="url(#paint12_radial)"/>
<path d="M80.0649 1.50293L89.9978 11.4379L82.6234 18.8123L83.0749 19.4143L77.8075 23.6261L76.152 24.2302L86.9878 13.2439L78.2589 4.51498L67.4231 15.3508L67.8746 13.8459L80.0649 1.50293Z" fill="url(#paint13_linear)"/>
<path d="M70.1321 0.451538C78.861 5.11698 85.9344 12.3409 90.7482 20.9193V0.451538H70.1321Z" fill="url(#paint14_radial)"/>
<path fill-rule="evenodd" clip-rule="evenodd" d="M69.8186 0.283981C69.9111 0.110902 70.1264 0.045586 70.2995 0.138094C79.0926 4.83785 86.2136 12.1123 91.0581 20.7453C91.1541 20.9165 91.0932 21.1331 90.9221 21.2291C90.7509 21.3251 90.5343 21.2643 90.4383 21.0931C85.6551 12.5693 78.6292 5.39599 69.9645 0.764869C69.7914 0.672362 69.7261 0.457061 69.8186 0.283981Z" fill="#A7A79C"/>
<path fill-rule="evenodd" clip-rule="evenodd" d="M69.9156 0.333154C69.9809 0.213647 70.1308 0.169766 70.2503 0.235143C78.9305 4.98365 86.0676 12.1208 90.8161 20.8009C90.8815 20.9204 90.8376 21.0703 90.7181 21.1356C90.5986 21.201 90.4487 21.1571 90.3833 21.0376C85.68 12.4402 78.611 5.37117 70.0136 0.667917C69.8941 0.60254 69.8502 0.452661 69.9156 0.333154Z" fill="#C2C2B9"/>
<path fill-rule="evenodd" clip-rule="evenodd" d="M69.8598 0.386431C69.8957 0.319235 69.9793 0.293877 70.0465 0.329792C78.8005 5.00863 85.8926 12.2524 90.7205 21.003C90.7573 21.0698 90.7331 21.1537 90.6664 21.1905C90.5997 21.2273 90.5157 21.203 90.4789 21.1363C85.675 12.4292 78.6203 5.22517 69.9165 0.573128C69.8493 0.537214 69.8239 0.453626 69.8598 0.386431Z" fill="#E0E0D8"/>
<path fill-rule="evenodd" clip-rule="evenodd" d="M69.9561 0.43718C69.9641 0.423088 69.9819 0.418081 69.996 0.425995C78.5789 5.24654 85.8069 12.3218 90.4752 21.0559C90.4828 21.0702 90.4774 21.0879 90.4632 21.0955C90.4489 21.1032 90.4312 21.0978 90.4236 21.0835C85.761 12.3599 78.5412 5.29253 69.9673 0.477025C69.9532 0.46911 69.9482 0.451271 69.9561 0.43718Z" fill="white"/>
<path d="M90.7504 0C90.9009 0 91.0535 0.150498 91.0535 0.451494H69.8291C69.8312 0.150498 69.9817 0 70.1322 0H90.7504Z" fill="url(#paint15_linear)"/>
<path d="M91.0513 20.9192C91.0513 21.2223 90.9008 21.3728 90.7483 21.3728L90.5999 21.0697V0H90.7483C90.8988 0 91.0513 0.150498 91.0513 0.451494V20.9192Z" fill="url(#paint16_linear)"/>
<path d="M78.259 50.6301C74.2416 50.6301 70.9745 48.1699 70.9745 45.1495C70.9745 42.127 74.2416 39.6688 78.259 39.6688C82.3601 39.6688 85.6962 42.127 85.6962 45.1495C85.6962 48.172 82.3601 50.6301 78.259 50.6301ZM78.259 41.2992C76.8147 41.2992 75.7633 42.9192 75.7633 45.1515C75.7633 47.2606 76.8377 48.8513 78.259 48.8513C79.6093 48.8513 80.7548 47.1561 80.7548 45.1515C80.7569 43.0258 79.6344 41.2992 78.259 41.2992ZM32.5077 50.6301C28.4881 50.6301 25.221 48.1699 25.221 45.1495C25.221 42.2586 28.5571 39.8172 32.5077 39.8172C36.6087 39.8172 39.9448 42.2106 39.9448 45.1495C39.9448 48.172 36.6087 50.6301 32.5077 50.6301ZM32.5077 41.4497C31.0821 41.4497 30.0119 43.0404 30.0119 45.1515C30.0119 47.2606 31.0863 48.8513 32.5077 48.8513C33.858 48.8513 35.0013 47.1561 35.0013 45.1515C35.0013 43.147 33.8621 41.4497 32.5077 41.4497ZM59.2963 50.3291L54.5765 41.5689L52.225 41.6044L52.1623 40.1872L62.4589 40.1245L62.5216 41.5417L59.9004 41.6044L63.5667 47.6808L66.6164 41.5124L64.8668 41.6023L64.8041 40.1851L71.9402 40.1224L72.0029 41.5396L69.5323 41.6023L64.9044 50.3312H59.2963V50.3291ZM40.4841 50.3291L40.4213 48.6109L42.8941 48.5503L42.8314 41.5396L40.4861 41.6023L40.4234 40.1851L49.9675 40.1224L50.0302 41.5396L47.5575 41.6023L47.6202 48.613L50.1159 48.5524C50.9269 48.5524 53.0632 48.0215 53.2116 45.601L54.7793 45.5424L54.842 50.3333H40.4841V50.3291ZM13.5449 50.3291L8.82513 41.5689L6.4736 41.6044L6.41089 40.1872L16.7075 40.1245L16.7702 41.5417L14.149 41.6044L17.8153 47.6808L21.0176 41.5124L19.1154 41.6044L19.0527 40.1872L26.1888 40.1245L26.2515 41.5417L23.7788 41.6044L19.151 50.3333L13.5449 50.3291Z" fill="white"/>
<path d="M78.2589 39.7315C82.3224 39.7315 85.6333 42.1395 85.6333 45.1515C85.6333 48.1594 82.3224 50.5694 78.2589 50.5694C74.346 50.5694 71.035 48.1615 71.035 45.1515C71.035 42.1395 74.346 39.7315 78.2589 39.7315ZM78.2589 48.9119C79.6113 48.9119 80.8174 47.2564 80.8174 45.1494C80.8174 42.892 79.6134 41.2365 78.2589 41.2365C76.7539 41.2365 75.6984 42.892 75.6984 45.1494C75.7004 47.2564 76.7539 48.9119 78.2589 48.9119ZM32.5075 39.882C36.5689 39.882 39.8798 42.29 39.8798 45.1515C39.8798 48.1594 36.5689 50.5694 32.5075 50.5694C28.5946 50.5694 25.2836 48.1615 25.2836 45.1515C25.2836 42.29 28.5946 39.882 32.5075 39.882ZM32.5075 48.9119C33.8599 48.9119 35.066 47.2564 35.066 45.1494C35.066 43.0404 33.862 41.3849 32.5075 41.3849C31.0004 41.3849 29.947 43.0404 29.947 45.1494C29.949 47.2564 31.0025 48.9119 32.5075 48.9119ZM71.938 40.183V41.5354H69.5321L64.8667 50.2643H59.2983L54.6349 41.5354H52.2269V40.183H62.4608V41.5354H59.9023L63.5164 47.7058L66.6768 41.5354H64.8709V40.183H71.938ZM49.9653 40.183V41.5354H47.5573V48.6088H50.1179C51.0209 48.6088 53.1257 48.0068 53.2783 45.6009H54.7833V50.2643H40.4839V48.6088H42.8919V41.5354H40.4839V40.183H49.9653ZM26.1866 40.183V41.5354H23.7786L19.1153 50.2643H13.5448L8.87933 41.5354H6.47136V40.183H16.7052V41.5354H14.1468L17.7587 47.7058L21.0697 41.5354H19.1132V40.183H26.1866ZM78.2589 39.6061C74.208 39.6061 70.9075 42.0914 70.9075 45.1494C70.9075 48.2054 74.2038 50.6907 78.2589 50.6907C82.3955 50.6907 85.7587 48.2075 85.7587 45.1494C85.7587 42.0893 82.3934 39.6061 78.2589 39.6061ZM78.2589 48.7865C76.871 48.7865 75.8259 47.223 75.8259 45.1515C75.8259 42.9547 76.848 41.364 78.2589 41.364C79.6009 41.364 80.692 43.0634 80.692 45.1515C80.692 47.1205 79.5779 48.7865 78.2589 48.7865ZM32.5075 39.7566C28.5235 39.7566 25.1561 42.2273 25.1561 45.1494C25.1561 48.2054 28.4524 50.6907 32.5075 50.6907C36.6441 50.6907 40.0073 48.2075 40.0073 45.1494C40.0073 42.175 36.6441 39.7566 32.5075 39.7566ZM32.5075 48.7865C31.1196 48.7865 30.0745 47.223 30.0745 45.1515C30.0745 43.078 31.1196 41.5145 32.5075 41.5145C33.8265 41.5145 34.9385 43.1804 34.9385 45.1515C34.9406 47.1205 33.8265 48.7865 32.5075 48.7865ZM72.0634 40.0576H64.7371V41.665H66.4636L63.5038 47.4487L60.1197 41.6629H62.5862V40.0555H52.0994V41.6629H54.5555L59.1854 50.3249L59.2209 50.3918H64.9398L64.9754 50.3249L69.6074 41.6629H72.0655V40.0576H72.0634ZM50.0907 40.0576H40.3585V41.665H42.7665V48.4876H40.3585V50.396H54.9087V45.4776H53.1592L53.1508 45.5967C53.0024 47.9692 50.9101 48.4896 50.1158 48.4896H47.6827V41.6671H50.0907V40.0576ZM26.312 40.0576H18.9878V41.665H20.8606L17.7545 47.455L14.3662 41.665H16.8348V40.0576H6.34595V41.665H8.80408L13.4361 50.327L13.4716 50.3939H19.1884L19.224 50.327L23.8539 41.665H26.312V40.0576Z" fill="#39393C"/>
<path d="M1.66807 33.7345C0.765078 37.3464 0.163086 41.1068 0.163086 45.0198C0.163086 45.3437 0.273869 47.2605 0.28432 47.5845L0.545602 50.492C0.541421 50.2579 0.424367 45.5193 0.424367 45.2831C0.424367 41.3702 1.07653 37.7436 1.97951 34.1296L33.5068 34L47.1143 33.7387L1.66807 33.7345Z" fill="url(#paint17_linear)"/>
</g>
<defs>
<radialGradient id="paint0_radial" cx="0" cy="0" r="1" gradientUnits="userSpaceOnUse" gradientTransform="translate(14.0925 36.1864) scale(93.361)">
<stop stop-color="white"/>
<stop offset="0.041" stop-color="#FAFAF8"/>
<stop offset="0.225" stop-color="#F8F8F5"/>
<stop offset="0.287" stop-color="#DADAD7"/>
<stop offset="0.413" stop-color="#A3A4A1"/>
<stop offset="0.52" stop-color="#7E7F7D"/>
<stop offset="0.6" stop-color="#686866"/>
<stop offset="0.646" stop-color="#5F5F5D"/>
<stop offset="0.739" stop-color="#565754"/>
<stop offset="0.899" stop-color="#3B3A37"/>
<stop offset="1"/>
</radialGradient>
<linearGradient id="paint1_linear" x1="28.4107" y1="39.0584" x2="61.884" y2="50.584" gradientUnits="userSpaceOnUse">
<stop stop-color="#DCDBD3"/>
<stop offset="1" stop-color="white"/>
</linearGradient>
<radialGradient id="paint2_radial" cx="0" cy="0" r="1" gradientUnits="userSpaceOnUse" gradientTransform="translate(72.6194 73.8088) scale(102.462)">
<stop stop-color="#BBBCB7"/>
<stop offset="1" stop-color="#808079"/>
</radialGradient>
<radialGradient id="paint3_radial" cx="0" cy="0" r="1" gradientUnits="userSpaceOnUse" gradientTransform="translate(62.1704 61.2673) scale(71.9506)">
<stop stop-color="white"/>
<stop offset="0.157" stop-color="#F1F1F2"/>
<stop offset="0.298" stop-color="#E4E4E5"/>
<stop offset="0.335" stop-color="#CECFCE"/>
<stop offset="0.4" stop-color="#AEAFAC"/>
<stop offset="0.464" stop-color="#969694"/>
<stop offset="0.526" stop-color="#858683"/>
<stop offset="0.586" stop-color="#7C7C79"/>
<stop offset="0.64" stop-color="#787976"/>
<stop offset="0.738" stop-color="#5E5E5B"/>
<stop offset="0.846" stop-color="#43423F"/>
<stop offset="0.937" stop-color="#1F1F1E"/>
<stop offset="1"/>
</radialGradient>
<linearGradient id="paint4_linear" x1="5.37828" y1="56.0354" x2="5.37828" y2="55.7825" gradientUnits="userSpaceOnUse">
<stop stop-color="white"/>
<stop offset="0.17" stop-color="#F8F8F5"/>
<stop offset="0.427" stop-color="#B1B1AC"/>
<stop offset="0.435" stop-color="#ADAEA8"/>
<stop offset="0.534" stop-color="#898984"/>
<stop offset="0.633" stop-color="#6C6C67"/>
<stop offset="0.731" stop-color="#53534E"/>
<stop offset="0.825" stop-color="#3E3E3A"/>
<stop offset="0.916" stop-color="#252523"/>
<stop offset="1" stop-color="#1B1A19"/>
</linearGradient>
<linearGradient id="paint5_linear" x1="11.6887" y1="55.0823" x2="11.6887" y2="54.9799" gradientUnits="userSpaceOnUse">
<stop stop-color="white"/>
<stop offset="0.17" stop-color="#F8F8F5"/>
<stop offset="0.427" stop-color="#B1B1AC"/>
<stop offset="0.435" stop-color="#ADAEA8"/>
<stop offset="0.534" stop-color="#898984"/>
<stop offset="0.633" stop-color="#6C6C67"/>
<stop offset="0.731" stop-color="#53534E"/>
<stop offset="0.825" stop-color="#3E3E3A"/>
<stop offset="0.916" stop-color="#252523"/>
<stop offset="1" stop-color="#1B1A19"/>
</linearGradient>
<linearGradient id="paint6_linear" x1="11.6887" y1="55.2996" x2="11.6887" y2="55.193" gradientUnits="userSpaceOnUse">
<stop stop-color="white"/>
<stop offset="0.17" stop-color="#F8F8F5"/>
<stop offset="0.427" stop-color="#B1B1AC"/>
<stop offset="0.435" stop-color="#ADAEA8"/>
<stop offset="0.534" stop-color="#898984"/>
<stop offset="0.633" stop-color="#6C6C67"/>
<stop offset="0.731" stop-color="#53534E"/>
<stop offset="0.825" stop-color="#3E3E3A"/>
<stop offset="0.916" stop-color="#252523"/>
<stop offset="1" stop-color="#1B1A19"/>
</linearGradient>
<linearGradient id="paint7_linear" x1="7.49572" y1="56.0354" x2="7.49572" y2="55.7825" gradientUnits="userSpaceOnUse">
<stop stop-color="white"/>
<stop offset="0.17" stop-color="#F8F8F5"/>
<stop offset="0.427" stop-color="#B1B1AC"/>
<stop offset="0.435" stop-color="#ADAEA8"/>
<stop offset="0.534" stop-color="#898984"/>
<stop offset="0.633" stop-color="#6C6C67"/>
<stop offset="0.731" stop-color="#53534E"/>
<stop offset="0.825" stop-color="#3E3E3A"/>
<stop offset="0.916" stop-color="#252523"/>
<stop offset="1" stop-color="#1B1A19"/>
</linearGradient>
<linearGradient id="paint8_linear" x1="12.7882" y1="55.4961" x2="12.7882" y2="55.3352" gradientUnits="userSpaceOnUse">
<stop stop-color="white"/>
<stop offset="0.17" stop-color="#F8F8F5"/>
<stop offset="0.427" stop-color="#B1B1AC"/>
<stop offset="0.435" stop-color="#ADAEA8"/>
<stop offset="0.534" stop-color="#898984"/>
<stop offset="0.633" stop-color="#6C6C67"/>
<stop offset="0.731" stop-color="#53534E"/>
<stop offset="0.825" stop-color="#3E3E3A"/>
<stop offset="0.916" stop-color="#252523"/>
<stop offset="1" stop-color="#1B1A19"/>
</linearGradient>
<linearGradient id="paint9_linear" x1="11.5632" y1="60.0089" x2="11.5632" y2="56.7858" gradientUnits="userSpaceOnUse">
<stop stop-color="white"/>
<stop offset="0.17" stop-color="#F8F8F5"/>
<stop offset="0.427" stop-color="#B1B1AC"/>
<stop offset="0.435" stop-color="#ADAEA8"/>
<stop offset="0.534" stop-color="#898984"/>
<stop offset="0.633" stop-color="#6C6C67"/>
<stop offset="0.731" stop-color="#53534E"/>
<stop offset="0.825" stop-color="#3E3E3A"/>
<stop offset="0.916" stop-color="#252523"/>
<stop offset="1" stop-color="#1B1A19"/>
</linearGradient>
<linearGradient id="paint10_linear" x1="12.7882" y1="55.1827" x2="12.7882" y2="55.0384" gradientUnits="userSpaceOnUse">
<stop stop-color="white"/>
<stop offset="0.17" stop-color="#F8F8F5"/>
<stop offset="0.427" stop-color="#B1B1AC"/>
<stop offset="0.435" stop-color="#ADAEA8"/>
<stop offset="0.534" stop-color="#898984"/>
<stop offset="0.633" stop-color="#6C6C67"/>
<stop offset="0.731" stop-color="#53534E"/>
<stop offset="0.825" stop-color="#3E3E3A"/>
<stop offset="0.916" stop-color="#252523"/>
<stop offset="1" stop-color="#1B1A19"/>
</linearGradient>
<linearGradient id="paint11_linear" x1="80.5666" y1="60.0069" x2="80.5666" y2="56.7837" gradientUnits="userSpaceOnUse">
<stop stop-color="white"/>
<stop offset="0.17" stop-color="#F8F8F5"/>
<stop offset="0.427" stop-color="#B1B1AC"/>
<stop offset="0.435" stop-color="#ADAEA8"/>
<stop offset="0.534" stop-color="#898984"/>
<stop offset="0.633" stop-color="#6C6C67"/>
<stop offset="0.731" stop-color="#53534E"/>
<stop offset="0.825" stop-color="#3E3E3A"/>
<stop offset="0.916" stop-color="#252523"/>
<stop offset="1" stop-color="#1B1A19"/>
</linearGradient>
<radialGradient id="paint12_radial" cx="0" cy="0" r="1" gradientUnits="userSpaceOnUse" gradientTransform="translate(4.16796 36.1885) scale(58.086)">
<stop stop-color="#1E71B8"/>
<stop offset="0.082" stop-color="#1C69AB"/>
<stop offset="0.166" stop-color="#1B64A4"/>
<stop offset="0.242" stop-color="#1A63A1"/>
<stop offset="0.392" stop-color="#185D98"/>
<stop offset="0.685" stop-color="#0F4D80"/>
<stop offset="0.837" stop-color="#004472"/>
<stop offset="0.933" stop-color="#014472"/>
<stop offset="0.968" stop-color="#064271"/>
<stop offset="0.993" stop-color="#0D3F6F"/>
<stop offset="1" stop-color="#0F3D6E"/>
</radialGradient>
<linearGradient id="paint13_linear" x1="89.1199" y1="23.8728" x2="66.4888" y2="1.23956" gradientUnits="userSpaceOnUse">
<stop offset="0.006" stop-color="#121209"/>
<stop offset="0.646" stop-color="#454441"/>
<stop offset="0.65" stop-color="#484845"/>
<stop offset="0.655" stop-color="#535350"/>
<stop offset="0.66" stop-color="#646561"/>
<stop offset="0.664" stop-color="#7B7B77"/>
<stop offset="0.669" stop-color="#969792"/>
<stop offset="0.674" stop-color="#BBBBB7"/>
<stop offset="0.678" stop-color="#E8E7E2"/>
<stop offset="0.68" stop-color="#FBFAF5"/>
<stop offset="0.682" stop-color="#F8F7F2"/>
<stop offset="0.684" stop-color="#F0F0EA"/>
<stop offset="0.685" stop-color="#E4E3DD"/>
<stop offset="0.686" stop-color="#D2D2CC"/>
<stop offset="0.687" stop-color="#BBBCB5"/>
<stop offset="0.689" stop-color="#83847D"/>
<stop offset="0.69" stop-color="#6D6D67"/>
<stop offset="0.706" stop-color="#5F5F5B"/>
<stop offset="0.732" stop-color="#4D4D4B"/>
<stop offset="0.762" stop-color="#3B3A3A"/>
<stop offset="0.8" stop-color="#242324"/>
<stop offset="0.853" stop-color="#101010"/>
<stop offset="1"/>
</linearGradient>
<radialGradient id="paint14_radial" cx="0" cy="0" r="1" gradientUnits="userSpaceOnUse" gradientTransform="translate(87.2554 2.74245) scale(24.2741)">
<stop stop-color="#575652"/>
<stop offset="1" stop-color="#52524E"/>
</radialGradient>
<linearGradient id="paint15_linear" x1="69.8312" y1="0.225747" x2="91.0514" y2="0.225747" gradientUnits="userSpaceOnUse">
<stop stop-color="#5D5E60"/>
<stop offset="0.019" stop-color="#5B5B5D"/>
<stop offset="0.205" stop-color="#484846"/>
<stop offset="0.41" stop-color="#343431"/>
<stop offset="0.649" stop-color="#222120"/>
<stop offset="1" stop-color="#1B1A19"/>
</linearGradient>
<linearGradient id="paint16_linear" x1="90.8256" y1="21.3728" x2="90.8256" y2="0.00208902" gradientUnits="userSpaceOnUse">
<stop stop-color="#5D5E60"/>
<stop offset="0.386" stop-color="#464543"/>
<stop offset="0.742" stop-color="#2A2927"/>
<stop offset="1" stop-color="#1B1A19"/>
</linearGradient>
<linearGradient id="paint17_linear" x1="12.3033" y1="26.521" x2="25.892" y2="44.9006" gradientUnits="userSpaceOnUse">
<stop stop-color="white"/>
<stop offset="0.109" stop-color="#D5DDF0"/>
<stop offset="0.338" stop-color="#94ADD9"/>
<stop offset="0.542" stop-color="#668FC9"/>
<stop offset="0.714" stop-color="#447DBF"/>
<stop offset="0.848" stop-color="#2A74BA"/>
<stop offset="0.927" stop-color="#1E71B8"/>
<stop offset="0.947" stop-color="#4079BC"/>
<stop offset="0.967" stop-color="#5580C0"/>
<stop offset="0.985" stop-color="#6085C2"/>
<stop offset="1" stop-color="#6486C3"/>
</linearGradient>
<clipPath id="clip0">
<rect width="93" height="90" fill="white"/>
</clipPath>
</defs>
</svg>
