<?xml version="1.0" encoding="UTF-8"?>
<svg width="202px" height="109px" viewBox="0 0 202 109" version="1.1" xmlns="http://www.w3.org/2000/svg" xmlns:xlink="http://www.w3.org/1999/xlink">
    <title>post copy 22</title>
    <g id="post-copy-22" stroke="none" stroke-width="1" fill="none" fill-rule="evenodd">
        <g id="Uber_logo_2018" transform="translate(56.000000, 39.000000)" fill="#010202" fill-rule="nonzero">
            <path d="M5.22925049,22.5346689 C5.61334466,23.5539845 6.14511456,24.4255262 6.82465825,25.1492942 C7.50420194,25.8731602 8.30926019,26.4270913 9.23983301,26.8111854 C10.1705039,27.1952796 11.182367,27.3872777 12.2755204,27.3872777 C13.3391583,27.3872777 14.3362146,27.1878272 15.2668854,26.7889262 C16.1975563,26.3900252 17.0099689,25.8287398 17.7042214,25.1049718 C18.3984738,24.3811058 18.9376961,23.5170165 19.3217903,22.5125078 C19.7058845,21.507999 19.8978825,20.3854282 19.8978825,19.144501 L19.8978825,0 L24.5510408,0 L24.5510408,31.0211204 L19.9422049,31.0211204 L19.9422049,28.1405612 C18.9081806,29.2336165 17.6894146,30.0756427 16.2861029,30.6666398 C14.8826932,31.2574408 13.3686738,31.5528903 11.7437505,31.5528903 C10.0892136,31.5528903 8.54558058,31.2647951 7.11265534,30.6887029 C5.67982816,30.1126107 4.43890097,29.2928437 3.39016796,28.2292058 C2.34143495,27.165568 1.51411748,25.887967 0.908509709,24.3959126 C0.302803883,22.9039563 0,21.2421631 0,19.4103369 L0,0 L4.65315825,0 L4.65315825,19.144501 C4.65315825,20.3854282 4.84515631,21.5153534 5.22925049,22.5346689 Z" id="Path"></path>
            <path d="M32.5718136,0 L32.5718136,11.3005272 C33.6058379,10.2665029 34.8024427,9.44673592 36.161432,8.8410301 C37.5204214,8.23532427 38.9976689,7.93252039 40.5929786,7.93252039 C42.2475155,7.93252039 43.7984049,8.24267864 45.2461369,8.8630932 C46.6937709,9.48350777 47.9493087,10.325534 49.0129466,11.3891718 C50.0765845,12.4528097 50.9186107,13.7083476 51.5390252,15.1559816 C52.1594398,16.6037136 52.4695981,18.1399922 52.4695981,19.7649155 C52.4695981,21.3897408 52.1594398,22.918665 51.5390252,24.3514922 C50.9186107,25.7844175 50.0765845,27.032699 49.0129466,28.0961408 C47.9493087,29.1597786 46.6937709,30.0018049 45.2461369,30.6222194 C43.7984049,31.242634 42.2474175,31.5527922 40.5929786,31.5527922 C38.9975709,31.5527922 37.513067,31.2499883 36.1392709,30.6442825 C34.7654748,30.0386748 33.5615155,29.2188097 32.5274913,28.1847854 L32.5274913,31.0210223 L28.0959447,31.0210223 L28.0959447,0 L32.5718136,0 Z M33.0814223,22.822666 C33.4802252,23.7681437 34.0342544,24.5953631 34.7433136,25.3044223 C35.4523728,26.0134816 36.2795922,26.574865 37.2249718,26.9884748 C38.1704495,27.4020845 39.189667,27.6088893 40.2828204,27.6088893 C41.3464583,27.6088893 42.3508689,27.4020845 43.2962485,26.9884748 C44.2416282,26.574865 45.0613951,26.0135796 45.7558437,25.3044223 C46.4500961,24.5954612 47.0040272,23.7681437 47.4176369,22.822666 C47.8312466,21.8772864 48.0380515,20.8580689 48.0380515,19.7649155 C48.0380515,18.6717621 47.8312466,17.6450922 47.4176369,16.6849058 C47.0040272,15.7247194 46.4500961,14.8901456 45.7558437,14.1810864 C45.0614932,13.4721252 44.2417262,12.9180961 43.2962485,12.5192932 C42.3507709,12.1204903 41.3463602,11.9209417 40.2828204,11.9209417 C39.2192806,11.9209417 38.2147718,12.1203922 37.2693922,12.5192932 C36.3240126,12.9181942 35.4967932,13.4721252 34.7876359,14.1810864 C34.0786748,14.8901456 33.5172913,15.7247194 33.1036816,16.6849058 C32.6900718,17.6450922 32.483267,18.6717621 32.483267,19.7649155 C32.483267,20.8580689 32.6826194,21.8772864 33.0814223,22.822666 Z" id="Shape"></path>
            <path d="M54.9951864,15.2004019 C55.5859874,13.7822835 56.3985961,12.5341 57.4325223,11.4557534 C58.4664485,10.3774068 59.692667,9.52802621 61.1107854,8.90761165 C62.5289039,8.28719709 64.0651825,7.97703883 65.7196214,7.97703883 C67.3445447,7.97703883 68.8513078,8.27248835 70.2399107,8.86328932 C71.6284155,9.45418835 72.8249223,10.2740534 73.8294311,11.3228845 C74.8339398,12.3716175 75.616935,13.6125447 76.1781223,15.0453718 C76.7395058,16.4782971 77.0201485,18.0367369 77.0201485,19.7207893 L77.0201485,21.1832301 L58.6291272,21.1832301 C58.776901,22.0990942 59.0723505,22.9484748 59.5154757,23.7312738 C59.958699,24.5141709 60.512532,25.1937146 61.1772689,25.7698068 C61.8420058,26.3459971 62.5953874,26.7965748 63.4374136,27.1214417 C64.2794398,27.4464068 65.1730447,27.6089874 66.1185223,27.6089874 C68.8070835,27.6089874 70.9785835,26.5010272 72.6330223,24.2852049 L75.8680621,26.6782184 C74.7453932,28.1849816 73.3568883,29.3667796 71.7024495,30.2235146 C70.0479126,31.0802495 68.1866689,31.508666 66.1186204,31.508666 C64.434568,31.508666 62.8614194,31.2131184 61.3989786,30.6223175 C59.9365379,30.0315165 58.6661932,29.204199 57.5878466,28.1405612 C56.5095,27.0769233 55.6601194,25.8287398 55.0397049,24.3959126 C54.4192903,22.9630854 54.1090339,21.4045476 54.1090339,19.7205932 C54.1090339,18.1252835 54.4043854,16.6185204 54.9951864,15.2004019 Z M61.2215913,13.449866 C59.9659553,14.4986971 59.1313816,15.8946544 58.7177718,17.6377379 L72.5000553,17.6377379 C72.1159612,15.8946544 71.2960961,14.4986971 70.0404602,13.449866 C68.7848243,12.401133 67.3150291,11.8767175 65.6310748,11.8767175 C63.9470223,11.8767175 62.4772272,12.401133 61.2215913,13.449866 Z" id="Shape"></path>
            <path d="M85.3955981,13.9594748 C84.4502184,14.993499 83.9774796,16.3968107 83.9774796,18.1695078 L83.9774796,31.0212184 L79.5015126,31.0212184 L79.5015126,8.42006602 L83.9330592,8.42006602 L83.9330592,11.2119806 C84.4944427,10.2961165 85.2256631,9.57225049 86.1267204,9.04048058 C87.0277777,8.50861262 88.0987699,8.24267864 89.3396971,8.24267864 L90.8906845,8.24267864 L90.8906845,12.4083893 L89.0294408,12.4083893 C87.5522913,12.4084874 86.3409777,12.9254505 85.3955981,13.9594748 Z" id="Path"></path>
        </g>
    </g>
</svg>